<svg width="160" height="168" viewBox="0 0 160 168" fill="none" xmlns="http://www.w3.org/2000/svg">
<path d="M130.208 108.415H29.7912C27.2025 108.415 25.1037 110.514 25.1037 113.103V163.311C25.1037 165.9 27.2025 167.998 29.7912 167.998H130.208C132.797 167.998 134.895 165.9 134.895 163.311V113.103C134.896 110.514 132.797 108.415 130.208 108.415Z" fill="#FFE660"/>
<path d="M134.895 163.311V113.103C134.896 110.514 132.797 108.415 130.208 108.415H79.9998V167.998H130.208C132.797 167.998 134.895 165.9 134.895 163.311Z" fill="#FFC54D"/>
<path d="M79.9998 87.6651C77.4117 87.6651 75.3135 85.5679 75.3123 82.9801C75.3123 82.8466 75.2566 69.492 71.6701 56.4439C67.2913 40.5136 59.9585 32.4361 49.8747 32.4361C40.8647 32.4361 36.8316 37.7992 36.8316 43.1145C36.8316 50.3832 44.0556 58.2067 59.9163 58.2067C62.5051 58.2067 64.6038 60.3054 64.6038 62.8942C64.6038 65.4829 62.5051 67.5817 59.9163 67.5817C39.4753 67.5817 27.4566 56.2142 27.4566 43.1145C27.4566 33.1492 35.1569 23.0611 49.8747 23.0611C60.0972 23.0611 73.7532 28.4514 80.7563 54.1298C84.6426 68.3789 84.6873 82.3882 84.6873 82.9776C84.6873 85.5663 82.5885 87.6651 79.9998 87.6651Z" fill="#DDEEFF"/>
<path d="M95.0623 67.582C92.4735 67.582 90.3748 65.4832 90.3748 62.8945C90.3748 60.3057 92.4735 58.207 95.0623 58.207C117.482 58.207 125.639 46.6739 125.639 38.177C125.639 29.5801 118.186 22.3945 105.104 22.3945C102.515 22.3945 100.417 20.2958 100.417 17.707C100.417 15.1183 102.515 13.0195 105.104 13.0195C126.442 13.0195 135.014 27.2042 135.014 38.177C135.014 53.852 120.373 67.582 95.0623 67.582Z" fill="#CDE3FF"/>
<path d="M159.643 86.2048C158.917 84.4532 157.208 83.311 155.312 83.311H105.104C103.861 83.311 102.669 83.8051 101.789 84.6841L79.9998 106.474L58.21 84.6841C57.331 83.8051 56.1388 83.311 54.8957 83.311H4.68746C2.79151 83.311 1.08214 84.4532 0.356822 86.2048C-0.368491 87.9563 0.0324467 89.9726 1.37307 91.3132L25.1041 115.044H134.896L158.627 91.3132C159.967 89.9726 160.369 87.9563 159.643 86.2048Z" fill="#FFC54D"/>
<path d="M158.627 91.3132C159.967 89.9726 160.369 87.9563 159.643 86.2048C158.917 84.4532 157.208 83.311 155.312 83.311H105.104C103.861 83.311 102.669 83.8051 101.789 84.6841L79.9998 106.474V115.044H134.896L158.627 91.3132Z" fill="#F98E00"/>
<path d="M86.5309 2.5C83.9888 2.5 81.7135 3.73595 80.2949 5.63202C78.8764 3.73595 76.6011 2.5 74.059 2.5C69.7472 2.5 66.25 6.01124 66.25 10.3511C66.25 12.0225 66.5169 13.5674 66.9803 15C69.1994 22.0225 76.0393 26.2219 79.4242 27.3736C79.9017 27.5421 80.6882 27.5421 81.1657 27.3736C84.5506 26.2219 91.3904 22.0225 93.6096 15C94.073 13.5674 94.3399 12.0225 94.3399 10.3511C94.3399 6.01124 90.8427 2.5 86.5309 2.5Z" fill="#C1676B"/>
</svg>
