<svg width="334" height="324" viewBox="0 0 334 324" fill="none" xmlns="http://www.w3.org/2000/svg">
<path d="M108.301 49.3408C-10.9786 73.4208 -47.6086 224.881 80.0614 287.741C81.4114 288.411 82.8114 289.001 84.2214 289.611C224.921 351.041 275.541 322.141 306.531 262.981C342.281 194.711 272.351 16.2308 108.301 49.3408Z" fill="#C4D8D9"/>
<path d="M176.122 96.6201C184.678 60.37 162.227 24.0477 125.977 15.4919C89.7272 6.93609 53.4049 29.3868 44.8491 65.6368C36.2933 101.887 58.7439 138.209 94.994 146.765C131.244 155.321 167.566 132.87 176.122 96.6201Z" fill="white"/>
<path d="M204.011 183.592C193.351 186.132 166.661 189.062 154.611 194.792C149.161 197.382 143.361 200.872 141.751 206.392C139.891 212.752 142.881 220.622 149.221 223.042C151.721 224.002 154.911 224.082 158.131 223.862C156.391 224.242 154.461 224.982 152.311 226.382C146.051 230.452 142.961 236.382 145.831 245.612C147.281 250.252 151.851 253.872 157.041 253.902C160.181 253.922 163.261 252.682 167.881 251.782C164.281 253.712 161.031 256.802 159.751 259.732C157.531 264.812 158.871 271.282 163.641 274.112C165.891 275.452 169.181 275.612 172.461 275.002C169.661 277.322 168.001 280.552 169.401 285.032C170.601 288.892 174.771 294.272 182.971 293.892C187.301 293.692 229.181 290.922 247.101 286.002C296.091 276.532 310.761 239.732 291.261 217.682C274.171 198.362 241.611 189.922 235.891 187.212C225.161 182.122 219.791 197.092 204.001 183.582L204.011 183.592ZM166.541 222.932C166.891 222.892 166.951 223.382 166.601 223.432C165.351 223.642 163.881 223.472 162.161 223.462C163.701 223.282 165.191 223.082 166.541 222.922V222.932Z" fill="#E8AEAE"/>
<path d="M153.63 134.044L142.988 140.902L160.144 167.523L170.786 160.665L153.63 134.044Z" fill="#3E4E8C"/>
<path d="M227.512 259.499C217.852 265.709 204.182 261.559 197.122 250.279L155.462 183.699C148.402 172.419 150.532 158.109 160.192 151.889C169.852 145.679 183.522 149.829 190.582 161.109L232.242 227.689C239.302 238.969 237.172 253.279 227.512 259.499Z" fill="#6C9DA0"/>
<path d="M40.1622 82.0089C40.5522 96.4689 44.4822 111.089 53.5022 123.789C76.5722 156.259 121.602 163.879 154.072 140.809C186.542 117.739 194.162 72.7089 171.092 40.2389C148.012 7.76894 102.982 0.14894 70.5122 23.2289C61.0222 29.9789 53.6522 38.5989 48.5522 48.2389C48.5522 48.2389 39.6222 62.3589 40.1622 82.0189V82.0089ZM146.652 130.379C119.942 149.359 82.9022 143.089 63.9222 116.379C44.9422 89.6689 51.2122 52.6289 77.9222 33.6489C104.632 14.6689 141.672 20.9389 160.652 47.6489C179.632 74.3589 173.362 111.399 146.652 130.379Z" fill="#6C9DA0"/>
<path d="M178.391 246.009C178.391 246.009 190.471 240.339 195.611 237.029C200.761 233.719 210.561 227.499 207.321 220.029C203.821 211.959 191.061 214.339 191.061 214.339C191.061 214.339 200.331 209.659 194.321 202.329C192.491 200.089 187.171 199.549 182.051 199.149C171.291 198.299 159.271 197.219 159.271 197.219L162.221 215.809L173.961 239.619L178.401 246.009H178.391Z" fill="#E8AEAE"/>
<path d="M200.871 283.782C200.871 283.782 205.141 281.742 210.321 278.542C215.501 275.342 220.881 265.252 210.821 261.352C204.311 258.832 201.781 260.462 201.781 260.462C201.781 260.462 212.861 257.792 210.141 247.342C207.491 237.152 180.791 242.452 180.791 242.452L183.471 259.982L194.841 282.332L200.881 283.762L200.871 283.782Z" fill="#E8AEAE"/>
<path d="M165.893 221.749C174.063 220.859 182.063 218.489 189.403 214.789" stroke="#C1676B" stroke-width="3.29" stroke-linecap="round" stroke-linejoin="round"/>
<path d="M177.713 269.651C187.663 266.721 192.553 265.031 201.153 261.781" stroke="#C1676B" stroke-width="3.29" stroke-linecap="round" stroke-linejoin="round"/>
<path d="M167.312 248.382C177.262 245.452 182.153 243.762 190.753 240.512" stroke="#C1676B" stroke-width="3.29" stroke-linecap="round" stroke-linejoin="round"/>
<path d="M228.792 217.871L247.982 219.151C243.252 217.851 251.592 198.191 251.592 198.191C251.592 198.191 230.552 182.081 217.752 175.811C204.772 169.451 191.742 158.851 189.592 159.811C180.772 163.751 186.692 179.791 199.692 188.131C210.582 195.111 224.452 216.211 228.792 217.881V217.871Z" fill="#E8AEAE"/>
<path d="M205.691 282.211C205.691 282.211 220.901 276.771 216.361 265.121" stroke="#C1676B" stroke-width="3.29" stroke-linecap="round" stroke-linejoin="round"/>
<path d="M245.973 263.71L283.703 284.72C300.923 294.31 322.843 287.27 330.863 269.26C331.143 268.64 331.413 267.99 331.673 267.33C338.583 249.85 329.543 230.1 311.933 223.54L280.523 211.84C280.523 211.84 258.903 223.56 255.713 222.99C230.053 218.39 274.913 238.55 274.913 238.55L245.973 263.7V263.71Z" fill="#E8AEAE"/>
<path d="M215.643 201.891C221.593 208.861 223.123 213.161 227.483 219.171C233.003 226.771 242.083 236.931 251.263 237.061" stroke="#C1676B" stroke-width="3.29" stroke-linecap="round" stroke-linejoin="round"/>
<path d="M105.473 141.143C141.393 141.513 176.473 117.312 169.383 67.5625" stroke="#544C8A" stroke-width="2.77" stroke-miterlimit="10" stroke-linecap="round"/>
<path d="M92.4616 46.5703C92.4616 46.5703 70.7216 60.3203 72.5816 83.9203" stroke="#544C8A" stroke-width="2.77" stroke-miterlimit="10" stroke-linecap="round"/>
</svg>
